<?xml version="1.0" standalone="no"?>
<!DOCTYPE svg PUBLIC "-//W3C//DTD SVG 20010904//EN"
 "http://www.w3.org/TR/2001/REC-SVG-20010904/DTD/svg10.dtd">
<svg version="1.0" xmlns="http://www.w3.org/2000/svg"
 width="232.000000pt" height="65.000000pt" viewBox="0 0 232.000000 65.000000"
 preserveAspectRatio="xMidYMid meet">

<g transform="translate(0.000000,65.000000) scale(0.100000,-0.100000)"
fill="#000000" stroke="none">
<path d="M158 637 c-7 -8 -47 -150 -87 -316 -81 -334 -81 -321 -5 -321 49 0
57 8 76 75 l14 50 59 0 59 0 14 -55 c7 -30 19 -58 25 -62 20 -13 94 -9 105 5
13 15 -124 594 -147 621 -17 20 -94 22 -113 3z m78 -317 c12 -76 12 -95 2
-102 -18 -11 -46 -10 -53 2 -9 15 21 207 31 198 2 -3 11 -47 20 -98z" fill = "white"/>
<path d="M482 638 c-17 -17 -17 -609 0 -626 7 -7 31 -12 55 -12 32 0 45 5 53
19 14 27 14 585 0 612 -8 14 -21 19 -53 19 -24 0 -48 -5 -55 -12z" fill = "white"/>
<path d="M890 640 c-13 -8 -15 -54 -18 -297 -3 -333 -2 -336 67 -341 24 -2 49
2 55 8 6 6 13 63 16 133 l5 122 54 -123 c30 -68 62 -127 72 -133 27 -14 99
-11 105 4 2 7 -25 81 -61 164 l-65 150 66 148 c36 81 63 154 60 161 -6 16 -78
19 -105 4 -10 -5 -43 -64 -72 -131 l-54 -122 -5 119 c-3 65 -9 125 -13 132
-10 14 -85 16 -107 2z" fill = "white" />
<path d="M1300 631 c-6 -12 -10 -129 -10 -310 0 -250 2 -292 16 -305 18 -19
85 -21 102 -4 17 17 17 609 0 626 -7 7 -31 12 -55 12 -32 0 -45 -5 -53 -19z" fill = "white"/>
<path d="M1513 644 c-18 -8 -19 -614 -1 -632 16 -16 95 -15 105 1 4 6 10 83
13 170 l5 158 59 -166 c64 -179 64 -180 137 -173 l34 3 3 309 c2 219 -1 313
-9 322 -15 18 -93 18 -108 1 -6 -8 -12 -76 -13 -173 l-3 -159 -61 170 -61 170
-44 2 c-24 1 -50 0 -56 -3z" fill = "white"/>
<path d="M2005 636 c-56 -24 -60 -44 -60 -311 0 -269 3 -282 62 -310 27 -13
58 -16 144 -13 103 3 110 4 136 31 27 26 28 32 31 143 3 80 0 119 -8 129 -18
22 -163 21 -184 -1 -9 -8 -16 -19 -16 -24 0 -17 32 -40 56 -40 24 0 25 -1 22
-73 l-3 -72 -48 -3 c-43 -3 -48 -1 -57 23 -6 15 -10 110 -10 213 0 210 6 235
55 240 50 4 60 -10 65 -95 l5 -78 60 0 60 0 3 82 c5 143 -29 173 -190 173 -54
-1 -106 -6 -123 -14z" fill = "white"/>
</g>
</svg>
